<svg width="86" height="20" viewBox="0 0 86 20" fill="none" xmlns="http://www.w3.org/2000/svg">
<g clip-path="url(#clip0_0_872)">
<path d="M18.8958 0H1.10417C0.494167 0 0 0.494167 0 1.10417V18.8967C0 19.5058 0.494167 20 1.10417 20H10.6833V12.255H8.07667V9.23667H10.6833V7.01083C10.6833 4.4275 12.2608 3.02083 14.5658 3.02083C15.67 3.02083 16.6183 3.10333 16.895 3.14V5.84L15.2967 5.84083C14.0433 5.84083 13.8008 6.43667 13.8008 7.31V9.2375H16.79L16.4008 12.2558H13.8008V20H18.8975C19.5058 20 20 19.5058 20 18.8958V1.10417C20 0.494167 19.5058 0 18.8958 0Z" fill="#178FF5"/>
<path d="M34.4389 17.5142C33.5327 17.5142 32.7259 17.3906 32.0185 17.1435C31.3111 16.8991 30.7131 16.5398 30.2244 16.0653C29.7358 15.5938 29.3636 15.017 29.108 14.3352C28.8523 13.6534 28.7244 12.8778 28.7244 12.0085C28.7244 11.1506 28.8523 10.3722 29.108 9.6733C29.3665 8.97443 29.7429 8.375 30.2372 7.875C30.7315 7.37216 31.3352 6.9858 32.0483 6.71591C32.7642 6.44602 33.5795 6.31108 34.4943 6.31108C35.3409 6.31108 36.0966 6.43466 36.7614 6.68182C37.429 6.92898 37.9943 7.28125 38.4574 7.73864C38.9233 8.19318 39.277 8.73437 39.5185 9.36222C39.7628 9.98722 39.8835 10.679 39.8807 11.4375C39.8835 11.9602 39.8381 12.4403 39.7443 12.8778C39.6506 13.3153 39.5028 13.6974 39.3011 14.0241C39.1023 14.348 38.8409 14.6051 38.517 14.7955C38.1932 14.983 37.8011 15.0895 37.3409 15.1151C37.0114 15.1406 36.7443 15.1165 36.5398 15.0426C36.3352 14.9687 36.179 14.8594 36.071 14.7145C35.9659 14.5668 35.8977 14.3949 35.8665 14.1989H35.8153C35.7472 14.3693 35.6136 14.5241 35.4148 14.6634C35.2159 14.7997 34.973 14.9062 34.6861 14.983C34.402 15.0568 34.0994 15.0838 33.7784 15.0639C33.4432 15.044 33.125 14.9659 32.8239 14.8295C32.5256 14.6932 32.2599 14.4957 32.027 14.2372C31.7969 13.9787 31.6151 13.6591 31.4815 13.2784C31.3509 12.8977 31.2841 12.4574 31.2812 11.9574C31.2841 11.4631 31.3537 11.0327 31.4901 10.6662C31.6293 10.2997 31.8125 9.99148 32.0398 9.74148C32.2699 9.49148 32.5256 9.29545 32.8068 9.15341C33.0881 9.01136 33.3707 8.92045 33.6548 8.88068C33.9759 8.83239 34.2798 8.83239 34.5668 8.88068C34.8537 8.92898 35.0952 9.0071 35.2912 9.11506C35.4901 9.22301 35.6136 9.33949 35.6619 9.46449H35.7216V8.98722H37.0554V13.1463C37.0582 13.3423 37.1023 13.4943 37.1875 13.6023C37.2727 13.7102 37.3878 13.7642 37.5327 13.7642C37.7287 13.7642 37.892 13.6776 38.0227 13.5043C38.1563 13.331 38.2557 13.0653 38.321 12.7074C38.3892 12.3494 38.4233 11.8935 38.4233 11.3395C38.4233 10.8054 38.3523 10.3366 38.2102 9.93324C38.071 9.52699 37.875 9.18182 37.6222 8.89773C37.3722 8.6108 37.081 8.37784 36.7486 8.19886C36.4162 8.01989 36.0554 7.8892 35.6662 7.80682C35.2798 7.72443 34.8821 7.68324 34.473 7.68324C33.7656 7.68324 33.1477 7.79119 32.6193 8.0071C32.0909 8.22017 31.6506 8.51989 31.2983 8.90625C30.946 9.29261 30.6818 9.74574 30.5057 10.2656C30.3324 10.7827 30.2443 11.3466 30.2415 11.9574C30.2443 12.6307 30.3381 13.2273 30.5227 13.7472C30.7102 14.2642 30.9858 14.6989 31.3494 15.0511C31.7131 15.4034 32.1619 15.6705 32.696 15.8523C33.2301 16.0341 33.8438 16.125 34.5369 16.125C34.8636 16.125 35.1832 16.1009 35.4957 16.0526C35.8082 16.0071 36.0909 15.9503 36.3438 15.8821C36.5966 15.8168 36.7997 15.7528 36.9531 15.6903L37.375 16.9261C37.196 17.0284 36.9531 17.1236 36.6463 17.2116C36.3423 17.3026 35.9986 17.375 35.6151 17.429C35.2344 17.4858 34.8423 17.5142 34.4389 17.5142ZM34.2429 13.6619C34.5895 13.6619 34.8651 13.5952 35.0696 13.4616C35.277 13.3281 35.4247 13.1307 35.5128 12.8693C35.6037 12.6051 35.6463 12.2798 35.6406 11.8935C35.6378 11.5526 35.5938 11.2642 35.5085 11.0284C35.4261 10.7898 35.2827 10.6094 35.0781 10.4872C34.8764 10.3622 34.5952 10.2997 34.2344 10.2997C33.919 10.2997 33.6506 10.3665 33.429 10.5C33.2102 10.6335 33.0426 10.821 32.9261 11.0625C32.8125 11.3011 32.7543 11.5824 32.7514 11.9062C32.7543 12.2074 32.8026 12.4929 32.8963 12.7628C32.9901 13.0298 33.1449 13.2472 33.3608 13.4148C33.5767 13.5795 33.8707 13.6619 34.2429 13.6619ZM42.9031 11.2159V15H41.0877V8.45455H42.8178V9.60938H42.8945C43.0394 9.22869 43.2823 8.92756 43.6232 8.70597C43.9641 8.48153 44.3775 8.36932 44.8633 8.36932C45.3178 8.36932 45.7141 8.46875 46.0522 8.66761C46.3903 8.86648 46.6531 9.15057 46.8406 9.51989C47.0281 9.88636 47.1218 10.3239 47.1218 10.8324V15H45.3065V11.1562C45.3093 10.7557 45.207 10.4432 44.9996 10.2188C44.7923 9.99148 44.5067 9.87784 44.1431 9.87784C43.8988 9.87784 43.6829 9.9304 43.4954 10.0355C43.3107 10.1406 43.1658 10.294 43.0607 10.4957C42.9585 10.6946 42.9059 10.9347 42.9031 11.2159ZM50.419 15.1236C50.0014 15.1236 49.6293 15.0511 49.3026 14.9062C48.9759 14.7585 48.7173 14.5412 48.527 14.2543C48.3395 13.9645 48.2457 13.6037 48.2457 13.1719C48.2457 12.8082 48.3125 12.5028 48.446 12.2557C48.5795 12.0085 48.7614 11.8097 48.9915 11.6591C49.2216 11.5085 49.483 11.3949 49.7756 11.3182C50.071 11.2415 50.3807 11.1875 50.7045 11.1562C51.0852 11.1165 51.392 11.0795 51.625 11.0455C51.858 11.0085 52.027 10.9545 52.1321 10.8835C52.2372 10.8125 52.2898 10.7074 52.2898 10.5682V10.5426C52.2898 10.2727 52.2045 10.0639 52.0341 9.91619C51.8665 9.76847 51.6278 9.6946 51.3182 9.6946C50.9915 9.6946 50.7315 9.76705 50.5384 9.91193C50.3452 10.054 50.2173 10.233 50.1548 10.4489L48.4759 10.3125C48.5611 9.91477 48.7287 9.57102 48.9787 9.28125C49.2287 8.98864 49.5511 8.7642 49.946 8.60795C50.3438 8.44886 50.804 8.36932 51.3267 8.36932C51.6903 8.36932 52.0384 8.41193 52.3707 8.49716C52.706 8.58239 53.0028 8.71449 53.2614 8.89347C53.5227 9.07244 53.7287 9.30256 53.8793 9.58381C54.0298 9.86222 54.1051 10.196 54.1051 10.5852V15H52.3835V14.0923H52.3324C52.2273 14.2969 52.0866 14.4773 51.9105 14.6335C51.7344 14.7869 51.5227 14.9077 51.2756 14.9957C51.0284 15.081 50.7429 15.1236 50.419 15.1236ZM50.9389 13.8707C51.206 13.8707 51.4418 13.8182 51.6463 13.7131C51.8509 13.6051 52.0114 13.4602 52.1278 13.2784C52.2443 13.0966 52.3026 12.8906 52.3026 12.6605V11.9659C52.2457 12.0028 52.1676 12.0369 52.0682 12.0682C51.9716 12.0966 51.8622 12.1236 51.7401 12.1491C51.6179 12.1719 51.4957 12.1932 51.3736 12.2131C51.2514 12.2301 51.1406 12.2457 51.0412 12.2599C50.8281 12.2912 50.642 12.3409 50.483 12.4091C50.3239 12.4773 50.2003 12.5696 50.1122 12.6861C50.0241 12.7997 49.9801 12.9418 49.9801 13.1122C49.9801 13.3594 50.0696 13.5483 50.2486 13.679C50.4304 13.8068 50.6605 13.8707 50.9389 13.8707ZM58.995 8.45455V9.81818H55.0533V8.45455H58.995ZM55.9482 6.88636H57.7635V12.9886C57.7635 13.1562 57.7891 13.2869 57.8402 13.3807C57.8913 13.4716 57.9624 13.5355 58.0533 13.5724C58.147 13.6094 58.255 13.6278 58.3771 13.6278C58.4624 13.6278 58.5476 13.6207 58.6328 13.6065C58.718 13.5895 58.7834 13.5767 58.8288 13.5682L59.1143 14.919C59.0234 14.9474 58.8956 14.9801 58.7308 15.017C58.5661 15.0568 58.3658 15.081 58.13 15.0895C57.6925 15.1065 57.3089 15.0483 56.9794 14.9148C56.6527 14.7812 56.3984 14.5739 56.2166 14.2926C56.0348 14.0114 55.9453 13.6562 55.9482 13.2273V6.88636ZM62.1335 11.2159V15H60.3182V6.27273H62.0824V9.60938H62.1591C62.3068 9.22301 62.5455 8.92045 62.875 8.7017C63.2045 8.48011 63.6179 8.36932 64.1151 8.36932C64.5696 8.36932 64.9659 8.46875 65.304 8.66761C65.6449 8.86364 65.9091 9.14631 66.0966 9.51562C66.2869 9.8821 66.3807 10.321 66.3778 10.8324V15H64.5625V11.1562C64.5653 10.7528 64.4631 10.4389 64.2557 10.2145C64.0511 9.99006 63.7642 9.87784 63.3949 9.87784C63.1477 9.87784 62.929 9.9304 62.7386 10.0355C62.5511 10.1406 62.4034 10.294 62.2955 10.4957C62.1903 10.6946 62.1364 10.9347 62.1335 11.2159ZM69.6729 15.1236C69.2553 15.1236 68.8832 15.0511 68.5565 14.9062C68.2298 14.7585 67.9712 14.5412 67.7809 14.2543C67.5934 13.9645 67.4996 13.6037 67.4996 13.1719C67.4996 12.8082 67.5664 12.5028 67.6999 12.2557C67.8335 12.0085 68.0153 11.8097 68.2454 11.6591C68.4755 11.5085 68.7369 11.3949 69.0295 11.3182C69.3249 11.2415 69.6346 11.1875 69.9585 11.1562C70.3391 11.1165 70.646 11.0795 70.8789 11.0455C71.1119 11.0085 71.2809 10.9545 71.386 10.8835C71.4911 10.8125 71.5437 10.7074 71.5437 10.5682V10.5426C71.5437 10.2727 71.4585 10.0639 71.288 9.91619C71.1204 9.76847 70.8817 9.6946 70.5721 9.6946C70.2454 9.6946 69.9854 9.76705 69.7923 9.91193C69.5991 10.054 69.4712 10.233 69.4087 10.4489L67.7298 10.3125C67.815 9.91477 67.9826 9.57102 68.2326 9.28125C68.4826 8.98864 68.805 8.7642 69.1999 8.60795C69.5977 8.44886 70.0579 8.36932 70.5806 8.36932C70.9442 8.36932 71.2923 8.41193 71.6246 8.49716C71.9599 8.58239 72.2567 8.71449 72.5153 8.89347C72.7766 9.07244 72.9826 9.30256 73.1332 9.58381C73.2837 9.86222 73.359 10.196 73.359 10.5852V15H71.6374V14.0923H71.5863C71.4812 14.2969 71.3406 14.4773 71.1644 14.6335C70.9883 14.7869 70.7766 14.9077 70.5295 14.9957C70.2823 15.081 69.9968 15.1236 69.6729 15.1236ZM70.1928 13.8707C70.4599 13.8707 70.6957 13.8182 70.9002 13.7131C71.1048 13.6051 71.2653 13.4602 71.3817 13.2784C71.4982 13.0966 71.5565 12.8906 71.5565 12.6605V11.9659C71.4996 12.0028 71.4215 12.0369 71.3221 12.0682C71.2255 12.0966 71.1161 12.1236 70.994 12.1491C70.8718 12.1719 70.7496 12.1932 70.6275 12.2131C70.5053 12.2301 70.3945 12.2457 70.2951 12.2599C70.082 12.2912 69.896 12.3409 69.7369 12.4091C69.5778 12.4773 69.4542 12.5696 69.3661 12.6861C69.2781 12.7997 69.234 12.9418 69.234 13.1122C69.234 13.3594 69.3235 13.5483 69.5025 13.679C69.6843 13.8068 69.9144 13.8707 70.1928 13.8707ZM76.5827 11.2159V15H74.7674V8.45455H76.4975V9.60938H76.5742C76.7191 9.22869 76.962 8.92756 77.3029 8.70597C77.6438 8.48153 78.0572 8.36932 78.543 8.36932C78.9975 8.36932 79.3938 8.46875 79.7319 8.66761C80.07 8.86648 80.3327 9.15057 80.5202 9.51989C80.7077 9.88636 80.8015 10.3239 80.8015 10.8324V15H78.9862V11.1562C78.989 10.7557 78.8867 10.4432 78.6793 10.2188C78.4719 9.99148 78.1864 9.87784 77.8228 9.87784C77.5785 9.87784 77.3626 9.9304 77.1751 10.0355C76.9904 10.1406 76.8455 10.294 76.7404 10.4957C76.6381 10.6946 76.5856 10.9347 76.5827 11.2159ZM85.7521 8.45455V9.81818H81.7124V8.45455H85.7521ZM82.6371 15V7.98153C82.6371 7.5071 82.7294 7.11364 82.9141 6.80114C83.1016 6.48864 83.3572 6.25426 83.6811 6.09801C84.005 5.94176 84.3729 5.86364 84.7848 5.86364C85.0632 5.86364 85.3175 5.88494 85.5476 5.92756C85.7805 5.97017 85.9538 6.00852 86.0675 6.04261L85.7436 7.40625C85.6726 7.38352 85.5845 7.36222 85.4794 7.34233C85.3771 7.32244 85.272 7.3125 85.1641 7.3125C84.897 7.3125 84.7109 7.375 84.6058 7.5C84.5007 7.62216 84.4482 7.79403 84.4482 8.01562V15H82.6371Z" fill="#8C98C6"/>
</g>
<defs>
<clipPath id="clip0_0_872">
<rect width="86" height="20" fill="white"/>
</clipPath>
</defs>
</svg>
