<svg width="109" height="20" viewBox="0 0 109 20" fill="none" xmlns="http://www.w3.org/2000/svg">
<g clip-path="url(#clip0_0_901)">
<path fill-rule="evenodd" clip-rule="evenodd" d="M10 0C7.28417 0 6.94417 0.0116667 5.8775 0.06C2.24583 0.226667 0.2275 2.24167 0.0608333 5.87667C0.0116667 6.94417 0 7.28417 0 10C0 12.7158 0.0116667 13.0567 0.06 14.1233C0.226667 17.755 2.24167 19.7733 5.87667 19.94C6.94417 19.9883 7.28417 20 10 20C12.7158 20 13.0567 19.9883 14.1233 19.94C17.7517 19.7733 19.775 17.7583 19.9392 14.1233C19.9883 13.0567 20 12.7158 20 10C20 7.28417 19.9883 6.94417 19.94 5.8775C19.7767 2.24917 17.7592 0.2275 14.1242 0.0608333C13.0567 0.0116667 12.7158 0 10 0ZM10 1.8025C12.67 1.8025 12.9867 1.8125 14.0417 1.86083C16.7517 1.98417 18.0175 3.27 18.1408 5.96C18.1892 7.01417 18.1983 7.33083 18.1983 10.0008C18.1983 12.6717 18.1883 12.9875 18.1408 14.0417C18.0167 16.7292 16.7542 18.0175 14.0417 18.1408C12.9867 18.1892 12.6717 18.1992 10 18.1992C7.33 18.1992 7.01333 18.1892 5.95917 18.1408C3.2425 18.0167 1.98333 16.725 1.86 14.0408C1.81167 12.9867 1.80167 12.6708 1.80167 10C1.80167 7.33 1.8125 7.01417 1.86 5.95917C1.98417 3.27 3.24667 1.98333 5.95917 1.86C7.01417 1.8125 7.33 1.8025 10 1.8025ZM4.865 10C4.865 7.16417 7.16417 4.865 10 4.865C12.8358 4.865 15.135 7.16417 15.135 10C15.135 12.8367 12.8358 15.1358 10 15.1358C7.16417 15.1358 4.865 12.8358 4.865 10ZM10 13.3333C8.15917 13.3333 6.66667 11.8417 6.66667 10C6.66667 8.15917 8.15917 6.66667 10 6.66667C11.8408 6.66667 13.3333 8.15917 13.3333 10C13.3333 11.8417 11.8408 13.3333 10 13.3333ZM14.1375 4.6625C14.1375 4 14.675 3.4625 15.3383 3.4625C16.0008 3.4625 16.5375 4 16.5375 4.6625C16.5375 5.325 16.0008 5.8625 15.3383 5.8625C14.675 5.8625 14.1375 5.325 14.1375 4.6625Z" fill="url(#paint0_linear_0_901)"/>
<path d="M34.4389 17.5142C33.5327 17.5142 32.7259 17.3906 32.0185 17.1435C31.3111 16.8991 30.7131 16.5398 30.2244 16.0653C29.7358 15.5938 29.3636 15.017 29.108 14.3352C28.8523 13.6534 28.7244 12.8778 28.7244 12.0085C28.7244 11.1506 28.8523 10.3722 29.108 9.6733C29.3665 8.97443 29.7429 8.375 30.2372 7.875C30.7315 7.37216 31.3352 6.9858 32.0483 6.71591C32.7642 6.44602 33.5795 6.31108 34.4943 6.31108C35.3409 6.31108 36.0966 6.43466 36.7614 6.68182C37.429 6.92898 37.9943 7.28125 38.4574 7.73864C38.9233 8.19318 39.277 8.73437 39.5185 9.36222C39.7628 9.98722 39.8835 10.679 39.8807 11.4375C39.8835 11.9602 39.8381 12.4403 39.7443 12.8778C39.6506 13.3153 39.5028 13.6974 39.3011 14.0241C39.1023 14.348 38.8409 14.6051 38.517 14.7955C38.1932 14.983 37.8011 15.0895 37.3409 15.1151C37.0114 15.1406 36.7443 15.1165 36.5398 15.0426C36.3352 14.9687 36.179 14.8594 36.071 14.7145C35.9659 14.5668 35.8977 14.3949 35.8665 14.1989H35.8153C35.7472 14.3693 35.6136 14.5241 35.4148 14.6634C35.2159 14.7997 34.973 14.9062 34.6861 14.983C34.402 15.0568 34.0994 15.0838 33.7784 15.0639C33.4432 15.044 33.125 14.9659 32.8239 14.8295C32.5256 14.6932 32.2599 14.4957 32.027 14.2372C31.7969 13.9787 31.6151 13.6591 31.4815 13.2784C31.3509 12.8977 31.2841 12.4574 31.2812 11.9574C31.2841 11.4631 31.3537 11.0327 31.4901 10.6662C31.6293 10.2997 31.8125 9.99148 32.0398 9.74148C32.2699 9.49148 32.5256 9.29545 32.8068 9.15341C33.0881 9.01136 33.3707 8.92045 33.6548 8.88068C33.9759 8.83239 34.2798 8.83239 34.5668 8.88068C34.8537 8.92898 35.0952 9.0071 35.2912 9.11506C35.4901 9.22301 35.6136 9.33949 35.6619 9.46449H35.7216V8.98722H37.0554V13.1463C37.0582 13.3423 37.1023 13.4943 37.1875 13.6023C37.2727 13.7102 37.3878 13.7642 37.5327 13.7642C37.7287 13.7642 37.892 13.6776 38.0227 13.5043C38.1563 13.331 38.2557 13.0653 38.321 12.7074C38.3892 12.3494 38.4233 11.8935 38.4233 11.3395C38.4233 10.8054 38.3523 10.3366 38.2102 9.93324C38.071 9.52699 37.875 9.18182 37.6222 8.89773C37.3722 8.6108 37.081 8.37784 36.7486 8.19886C36.4162 8.01989 36.0554 7.8892 35.6662 7.80682C35.2798 7.72443 34.8821 7.68324 34.473 7.68324C33.7656 7.68324 33.1477 7.79119 32.6193 8.0071C32.0909 8.22017 31.6506 8.51989 31.2983 8.90625C30.946 9.29261 30.6818 9.74574 30.5057 10.2656C30.3324 10.7827 30.2443 11.3466 30.2415 11.9574C30.2443 12.6307 30.3381 13.2273 30.5227 13.7472C30.7102 14.2642 30.9858 14.6989 31.3494 15.0511C31.7131 15.4034 32.1619 15.6705 32.696 15.8523C33.2301 16.0341 33.8438 16.125 34.5369 16.125C34.8636 16.125 35.1832 16.1009 35.4957 16.0526C35.8082 16.0071 36.0909 15.9503 36.3438 15.8821C36.5966 15.8168 36.7997 15.7528 36.9531 15.6903L37.375 16.9261C37.196 17.0284 36.9531 17.1236 36.6463 17.2116C36.3423 17.3026 35.9986 17.375 35.6151 17.429C35.2344 17.4858 34.8423 17.5142 34.4389 17.5142ZM34.2429 13.6619C34.5895 13.6619 34.8651 13.5952 35.0696 13.4616C35.277 13.3281 35.4247 13.1307 35.5128 12.8693C35.6037 12.6051 35.6463 12.2798 35.6406 11.8935C35.6378 11.5526 35.5938 11.2642 35.5085 11.0284C35.4261 10.7898 35.2827 10.6094 35.0781 10.4872C34.8764 10.3622 34.5952 10.2997 34.2344 10.2997C33.919 10.2997 33.6506 10.3665 33.429 10.5C33.2102 10.6335 33.0426 10.821 32.9261 11.0625C32.8125 11.3011 32.7543 11.5824 32.7514 11.9062C32.7543 12.2074 32.8026 12.4929 32.8963 12.7628C32.9901 13.0298 33.1449 13.2472 33.3608 13.4148C33.5767 13.5795 33.8707 13.6619 34.2429 13.6619ZM41.0877 15V8.45455H42.8477V9.59659H42.9158C43.0352 9.19034 43.2354 8.88352 43.5167 8.67614C43.7979 8.46591 44.1218 8.3608 44.4883 8.3608C44.5792 8.3608 44.6772 8.36648 44.7823 8.37784C44.8874 8.3892 44.9798 8.40483 45.0593 8.42472V10.0355C44.9741 10.0099 44.8562 9.98722 44.7056 9.96733C44.555 9.94744 44.4173 9.9375 44.2923 9.9375C44.0252 9.9375 43.7866 9.99574 43.5763 10.1122C43.369 10.2259 43.2042 10.3849 43.082 10.5895C42.9627 10.794 42.9031 11.0298 42.9031 11.2969V15H41.0877ZM48.6761 15.1278C48.0028 15.1278 47.4233 14.9915 46.9375 14.7188C46.4545 14.4432 46.0824 14.054 45.821 13.5511C45.5597 13.0455 45.429 12.4474 45.429 11.7571C45.429 11.0838 45.5597 10.4929 45.821 9.98438C46.0824 9.47585 46.4503 9.07955 46.9247 8.79545C47.402 8.51136 47.9616 8.36932 48.6037 8.36932C49.0355 8.36932 49.4375 8.43892 49.8097 8.57812C50.1847 8.71449 50.5114 8.92045 50.7898 9.19602C51.071 9.47159 51.2898 9.81818 51.446 10.2358C51.6023 10.6506 51.6804 11.1364 51.6804 11.6932V12.1918H46.1534V11.0668H49.9716C49.9716 10.8054 49.9148 10.5739 49.8011 10.3722C49.6875 10.1705 49.5298 10.0128 49.3281 9.89915C49.1293 9.78267 48.8977 9.72443 48.6335 9.72443C48.358 9.72443 48.1136 9.78835 47.9006 9.91619C47.6903 10.0412 47.5256 10.2102 47.4062 10.4233C47.2869 10.6335 47.2259 10.8679 47.223 11.1264V12.196C47.223 12.5199 47.2827 12.7997 47.402 13.0355C47.5241 13.2713 47.696 13.4531 47.9176 13.581C48.1392 13.7088 48.402 13.7727 48.706 13.7727C48.9077 13.7727 49.0923 13.7443 49.2599 13.6875C49.4276 13.6307 49.571 13.5455 49.6903 13.4318C49.8097 13.3182 49.9006 13.179 49.9631 13.0142L51.642 13.125C51.5568 13.5284 51.3821 13.8807 51.1179 14.1818C50.8565 14.4801 50.5185 14.7131 50.1037 14.8807C49.6918 15.0455 49.2159 15.1278 48.6761 15.1278ZM54.7315 15.1236C54.3139 15.1236 53.9418 15.0511 53.6151 14.9062C53.2884 14.7585 53.0298 14.5412 52.8395 14.2543C52.652 13.9645 52.5582 13.6037 52.5582 13.1719C52.5582 12.8082 52.625 12.5028 52.7585 12.2557C52.892 12.0085 53.0739 11.8097 53.304 11.6591C53.5341 11.5085 53.7955 11.3949 54.0881 11.3182C54.3835 11.2415 54.6932 11.1875 55.017 11.1562C55.3977 11.1165 55.7045 11.0795 55.9375 11.0455C56.1705 11.0085 56.3395 10.9545 56.4446 10.8835C56.5497 10.8125 56.6023 10.7074 56.6023 10.5682V10.5426C56.6023 10.2727 56.517 10.0639 56.3466 9.91619C56.179 9.76847 55.9403 9.6946 55.6307 9.6946C55.304 9.6946 55.044 9.76705 54.8509 9.91193C54.6577 10.054 54.5298 10.233 54.4673 10.4489L52.7884 10.3125C52.8736 9.91477 53.0412 9.57102 53.2912 9.28125C53.5412 8.98864 53.8636 8.7642 54.2585 8.60795C54.6563 8.44886 55.1165 8.36932 55.6392 8.36932C56.0028 8.36932 56.3509 8.41193 56.6832 8.49716C57.0185 8.58239 57.3153 8.71449 57.5739 8.89347C57.8352 9.07244 58.0412 9.30256 58.1918 9.58381C58.3423 9.86222 58.4176 10.196 58.4176 10.5852V15H56.696V14.0923H56.6449C56.5398 14.2969 56.3991 14.4773 56.223 14.6335C56.0469 14.7869 55.8352 14.9077 55.5881 14.9957C55.3409 15.081 55.0554 15.1236 54.7315 15.1236ZM55.2514 13.8707C55.5185 13.8707 55.7543 13.8182 55.9588 13.7131C56.1634 13.6051 56.3239 13.4602 56.4403 13.2784C56.5568 13.0966 56.6151 12.8906 56.6151 12.6605V11.9659C56.5582 12.0028 56.4801 12.0369 56.3807 12.0682C56.2841 12.0966 56.1747 12.1236 56.0526 12.1491C55.9304 12.1719 55.8082 12.1932 55.6861 12.2131C55.5639 12.2301 55.4531 12.2457 55.3537 12.2599C55.1406 12.2912 54.9545 12.3409 54.7955 12.4091C54.6364 12.4773 54.5128 12.5696 54.4247 12.6861C54.3366 12.7997 54.2926 12.9418 54.2926 13.1122C54.2926 13.3594 54.3821 13.5483 54.5611 13.679C54.7429 13.8068 54.973 13.8707 55.2514 13.8707ZM61.6413 6.27273V15H59.826V6.27273H61.6413ZM64.9109 11.2159V15H63.0955V8.45455H64.8256V9.60938H64.9023C65.0472 9.22869 65.2901 8.92756 65.631 8.70597C65.9719 8.48153 66.3853 8.36932 66.8711 8.36932C67.3256 8.36932 67.7219 8.46875 68.06 8.66761C68.3981 8.86648 68.6609 9.15057 68.8484 9.51989C69.0359 9.88636 69.1296 10.3239 69.1296 10.8324V15H67.3143V11.1562C67.3171 10.7557 67.2148 10.4432 67.0075 10.2188C66.8001 9.99148 66.5146 9.87784 66.1509 9.87784C65.9066 9.87784 65.6907 9.9304 65.5032 10.0355C65.3185 10.1406 65.1737 10.294 65.0685 10.4957C64.9663 10.6946 64.9137 10.9347 64.9109 11.2159ZM72.4268 15.1236C72.0092 15.1236 71.6371 15.0511 71.3104 14.9062C70.9837 14.7585 70.7251 14.5412 70.5348 14.2543C70.3473 13.9645 70.2536 13.6037 70.2536 13.1719C70.2536 12.8082 70.3203 12.5028 70.4538 12.2557C70.5874 12.0085 70.7692 11.8097 70.9993 11.6591C71.2294 11.5085 71.4908 11.3949 71.7834 11.3182C72.0788 11.2415 72.3885 11.1875 72.7124 11.1562C73.093 11.1165 73.3999 11.0795 73.6328 11.0455C73.8658 11.0085 74.0348 10.9545 74.1399 10.8835C74.245 10.8125 74.2976 10.7074 74.2976 10.5682V10.5426C74.2976 10.2727 74.2124 10.0639 74.0419 9.91619C73.8743 9.76847 73.6357 9.6946 73.326 9.6946C72.9993 9.6946 72.7393 9.76705 72.5462 9.91193C72.353 10.054 72.2251 10.233 72.1626 10.4489L70.4837 10.3125C70.5689 9.91477 70.7365 9.57102 70.9865 9.28125C71.2365 8.98864 71.5589 8.7642 71.9538 8.60795C72.3516 8.44886 72.8118 8.36932 73.3345 8.36932C73.6982 8.36932 74.0462 8.41193 74.3786 8.49716C74.7138 8.58239 75.0107 8.71449 75.2692 8.89347C75.5305 9.07244 75.7365 9.30256 75.8871 9.58381C76.0376 9.86222 76.1129 10.196 76.1129 10.5852V15H74.3913V14.0923H74.3402C74.2351 14.2969 74.0945 14.4773 73.9183 14.6335C73.7422 14.7869 73.5305 14.9077 73.2834 14.9957C73.0362 15.081 72.7507 15.1236 72.4268 15.1236ZM72.9467 13.8707C73.2138 13.8707 73.4496 13.8182 73.6541 13.7131C73.8587 13.6051 74.0192 13.4602 74.1357 13.2784C74.2521 13.0966 74.3104 12.8906 74.3104 12.6605V11.9659C74.2536 12.0028 74.1754 12.0369 74.076 12.0682C73.9794 12.0966 73.87 12.1236 73.7479 12.1491C73.6257 12.1719 73.5036 12.1932 73.3814 12.2131C73.2592 12.2301 73.1484 12.2457 73.049 12.2599C72.8359 12.2912 72.6499 12.3409 72.4908 12.4091C72.3317 12.4773 72.2081 12.5696 72.12 12.6861C72.032 12.7997 71.9879 12.9418 71.9879 13.1122C71.9879 13.3594 72.0774 13.5483 72.2564 13.679C72.4382 13.8068 72.6683 13.8707 72.9467 13.8707ZM81.0028 8.45455V9.81818H77.0611V8.45455H81.0028ZM77.956 6.88636H79.7713V12.9886C79.7713 13.1562 79.7969 13.2869 79.848 13.3807C79.8991 13.4716 79.9702 13.5355 80.0611 13.5724C80.1548 13.6094 80.2628 13.6278 80.3849 13.6278C80.4702 13.6278 80.5554 13.6207 80.6406 13.6065C80.7259 13.5895 80.7912 13.5767 80.8366 13.5682L81.1222 14.919C81.0313 14.9474 80.9034 14.9801 80.7386 15.017C80.5739 15.0568 80.3736 15.081 80.1378 15.0895C79.7003 15.1065 79.3168 15.0483 78.9872 14.9148C78.6605 14.7812 78.4063 14.5739 78.2244 14.2926C78.0426 14.0114 77.9531 13.6562 77.956 13.2273V6.88636ZM84.1413 11.2159V15H82.326V6.27273H84.0902V9.60938H84.1669C84.3146 9.22301 84.5533 8.92045 84.8828 8.7017C85.2124 8.48011 85.6257 8.36932 86.1229 8.36932C86.5774 8.36932 86.9737 8.46875 87.3118 8.66761C87.6527 8.86364 87.9169 9.14631 88.1044 9.51562C88.2947 9.8821 88.3885 10.321 88.3857 10.8324V15H86.5703V11.1562C86.5732 10.7528 86.4709 10.4389 86.2635 10.2145C86.0589 9.99006 85.772 9.87784 85.4027 9.87784C85.1555 9.87784 84.9368 9.9304 84.7464 10.0355C84.5589 10.1406 84.4112 10.294 84.3033 10.4957C84.1982 10.6946 84.1442 10.9347 84.1413 11.2159ZM91.6808 15.1236C91.2631 15.1236 90.891 15.0511 90.5643 14.9062C90.2376 14.7585 89.979 14.5412 89.7887 14.2543C89.6012 13.9645 89.5075 13.6037 89.5075 13.1719C89.5075 12.8082 89.5742 12.5028 89.7077 12.2557C89.8413 12.0085 90.0231 11.8097 90.2532 11.6591C90.4833 11.5085 90.7447 11.3949 91.0373 11.3182C91.3327 11.2415 91.6424 11.1875 91.9663 11.1562C92.3469 11.1165 92.6538 11.0795 92.8867 11.0455C93.1197 11.0085 93.2887 10.9545 93.3938 10.8835C93.4989 10.8125 93.5515 10.7074 93.5515 10.5682V10.5426C93.5515 10.2727 93.4663 10.0639 93.2958 9.91619C93.1282 9.76847 92.8896 9.6946 92.5799 9.6946C92.2532 9.6946 91.9933 9.76705 91.8001 9.91193C91.6069 10.054 91.479 10.233 91.4165 10.4489L89.7376 10.3125C89.8228 9.91477 89.9904 9.57102 90.2404 9.28125C90.4904 8.98864 90.8129 8.7642 91.2077 8.60795C91.6055 8.44886 92.0657 8.36932 92.5884 8.36932C92.9521 8.36932 93.3001 8.41193 93.6325 8.49716C93.9677 8.58239 94.2646 8.71449 94.5231 8.89347C94.7844 9.07244 94.9904 9.30256 95.141 9.58381C95.2915 9.86222 95.3668 10.196 95.3668 10.5852V15H93.6452V14.0923H93.5941C93.489 14.2969 93.3484 14.4773 93.1722 14.6335C92.9961 14.7869 92.7844 14.9077 92.5373 14.9957C92.2901 15.081 92.0046 15.1236 91.6808 15.1236ZM92.2006 13.8707C92.4677 13.8707 92.7035 13.8182 92.908 13.7131C93.1126 13.6051 93.2731 13.4602 93.3896 13.2784C93.506 13.0966 93.5643 12.8906 93.5643 12.6605V11.9659C93.5075 12.0028 93.4293 12.0369 93.3299 12.0682C93.2333 12.0966 93.1239 12.1236 93.0018 12.1491C92.8796 12.1719 92.7575 12.1932 92.6353 12.2131C92.5131 12.2301 92.4023 12.2457 92.3029 12.2599C92.0898 12.2912 91.9038 12.3409 91.7447 12.4091C91.5856 12.4773 91.462 12.5696 91.3739 12.6861C91.2859 12.7997 91.2418 12.9418 91.2418 13.1122C91.2418 13.3594 91.3313 13.5483 91.5103 13.679C91.6921 13.8068 91.9222 13.8707 92.2006 13.8707ZM98.5906 11.2159V15H96.7752V8.45455H98.5053V9.60938H98.582C98.7269 9.22869 98.9698 8.92756 99.3107 8.70597C99.6516 8.48153 100.065 8.36932 100.551 8.36932C101.005 8.36932 101.402 8.46875 101.74 8.66761C102.078 8.86648 102.341 9.15057 102.528 9.51989C102.716 9.88636 102.809 10.3239 102.809 10.8324V15H100.994V11.1562C100.997 10.7557 100.895 10.4432 100.687 10.2188C100.48 9.99148 100.194 9.87784 99.8306 9.87784C99.5863 9.87784 99.3704 9.9304 99.1829 10.0355C98.9982 10.1406 98.8533 10.294 98.7482 10.4957C98.646 10.6946 98.5934 10.9347 98.5906 11.2159ZM107.76 8.45455V9.81818H103.72V8.45455H107.76ZM104.645 15V7.98153C104.645 7.5071 104.737 7.11364 104.922 6.80114C105.109 6.48864 105.365 6.25426 105.689 6.09801C106.013 5.94176 106.381 5.86364 106.793 5.86364C107.071 5.86364 107.325 5.88494 107.555 5.92756C107.788 5.97017 107.962 6.00852 108.075 6.04261L107.751 7.40625C107.68 7.38352 107.592 7.36222 107.487 7.34233C107.385 7.32244 107.28 7.3125 107.172 7.3125C106.905 7.3125 106.719 7.375 106.614 7.5C106.509 7.62216 106.456 7.79403 106.456 8.01562V15H104.645Z" fill="#8C98C6"/>
</g>
<defs>
<linearGradient id="paint0_linear_0_901" x1="10" y1="-10" x2="-10" y2="10" gradientUnits="userSpaceOnUse">
<stop stop-color="#DF4896"/>
<stop offset="0.509134" stop-color="#EE877E"/>
<stop offset="1" stop-color="#FDC366"/>
</linearGradient>
<clipPath id="clip0_0_901">
<rect width="109" height="20" fill="white"/>
</clipPath>
</defs>
</svg>
