<svg width="86" height="17" viewBox="0 0 86 17" fill="none" xmlns="http://www.w3.org/2000/svg">
<g clip-path="url(#clip0_0_886)">
<path d="M20 1.92417C19.2642 2.25083 18.4733 2.47083 17.6433 2.57C18.4908 2.0625 19.1417 1.25833 19.4475 0.3C18.655 0.77 17.7767 1.11167 16.8417 1.29583C16.0942 0.498333 15.0267 0 13.8467 0C11.1975 0 9.25083 2.47167 9.84917 5.0375C6.44 4.86667 3.41667 3.23333 1.3925 0.750833C0.3175 2.595 0.835 5.0075 2.66167 6.22917C1.99 6.2075 1.35667 6.02333 0.804167 5.71583C0.759167 7.61667 2.12167 9.395 4.095 9.79083C3.5175 9.9475 2.885 9.98417 2.24167 9.86083C2.76333 11.4908 4.27833 12.6767 6.075 12.71C4.35 14.0625 2.17667 14.6667 0 14.41C1.81583 15.5742 3.97333 16.2533 6.29 16.2533C13.9083 16.2533 18.2125 9.81917 17.9525 4.04833C18.7542 3.46917 19.45 2.74667 20 1.92417Z" fill="#1DA1F2"/>
<path d="M34.4389 15.5142C33.5327 15.5142 32.7259 15.3906 32.0185 15.1435C31.3111 14.8991 30.7131 14.5398 30.2244 14.0653C29.7358 13.5938 29.3636 13.017 29.108 12.3352C28.8523 11.6534 28.7244 10.8778 28.7244 10.0085C28.7244 9.15057 28.8523 8.37216 29.108 7.6733C29.3665 6.97443 29.7429 6.375 30.2372 5.875C30.7315 5.37216 31.3352 4.9858 32.0483 4.71591C32.7642 4.44602 33.5795 4.31108 34.4943 4.31108C35.3409 4.31108 36.0966 4.43466 36.7614 4.68182C37.429 4.92898 37.9943 5.28125 38.4574 5.73864C38.9233 6.19318 39.277 6.73437 39.5185 7.36222C39.7628 7.98722 39.8835 8.67898 39.8807 9.4375C39.8835 9.96023 39.8381 10.4403 39.7443 10.8778C39.6506 11.3153 39.5028 11.6974 39.3011 12.0241C39.1023 12.348 38.8409 12.6051 38.517 12.7955C38.1932 12.983 37.8011 13.0895 37.3409 13.1151C37.0114 13.1406 36.7443 13.1165 36.5398 13.0426C36.3352 12.9687 36.179 12.8594 36.071 12.7145C35.9659 12.5668 35.8977 12.3949 35.8665 12.1989H35.8153C35.7472 12.3693 35.6136 12.5241 35.4148 12.6634C35.2159 12.7997 34.973 12.9062 34.6861 12.983C34.402 13.0568 34.0994 13.0838 33.7784 13.0639C33.4432 13.044 33.125 12.9659 32.8239 12.8295C32.5256 12.6932 32.2599 12.4957 32.027 12.2372C31.7969 11.9787 31.6151 11.6591 31.4815 11.2784C31.3509 10.8977 31.2841 10.4574 31.2812 9.95739C31.2841 9.46307 31.3537 9.03267 31.4901 8.66619C31.6293 8.29972 31.8125 7.99148 32.0398 7.74148C32.2699 7.49148 32.5256 7.29545 32.8068 7.15341C33.0881 7.01136 33.3707 6.92045 33.6548 6.88068C33.9759 6.83239 34.2798 6.83239 34.5668 6.88068C34.8537 6.92898 35.0952 7.0071 35.2912 7.11506C35.4901 7.22301 35.6136 7.33949 35.6619 7.46449H35.7216V6.98722H37.0554V11.1463C37.0582 11.3423 37.1023 11.4943 37.1875 11.6023C37.2727 11.7102 37.3878 11.7642 37.5327 11.7642C37.7287 11.7642 37.892 11.6776 38.0227 11.5043C38.1563 11.331 38.2557 11.0653 38.321 10.7074C38.3892 10.3494 38.4233 9.89347 38.4233 9.33949C38.4233 8.8054 38.3523 8.33665 38.2102 7.93324C38.071 7.52699 37.875 7.18182 37.6222 6.89773C37.3722 6.6108 37.081 6.37784 36.7486 6.19886C36.4162 6.01989 36.0554 5.8892 35.6662 5.80682C35.2798 5.72443 34.8821 5.68324 34.473 5.68324C33.7656 5.68324 33.1477 5.79119 32.6193 6.0071C32.0909 6.22017 31.6506 6.51989 31.2983 6.90625C30.946 7.29261 30.6818 7.74574 30.5057 8.26562C30.3324 8.78267 30.2443 9.34659 30.2415 9.95739C30.2443 10.6307 30.3381 11.2273 30.5227 11.7472C30.7102 12.2642 30.9858 12.6989 31.3494 13.0511C31.7131 13.4034 32.1619 13.6705 32.696 13.8523C33.2301 14.0341 33.8438 14.125 34.5369 14.125C34.8636 14.125 35.1832 14.1009 35.4957 14.0526C35.8082 14.0071 36.0909 13.9503 36.3438 13.8821C36.5966 13.8168 36.7997 13.7528 36.9531 13.6903L37.375 14.9261C37.196 15.0284 36.9531 15.1236 36.6463 15.2116C36.3423 15.3026 35.9986 15.375 35.6151 15.429C35.2344 15.4858 34.8423 15.5142 34.4389 15.5142ZM34.2429 11.6619C34.5895 11.6619 34.8651 11.5952 35.0696 11.4616C35.277 11.3281 35.4247 11.1307 35.5128 10.8693C35.6037 10.6051 35.6463 10.2798 35.6406 9.89347C35.6378 9.55256 35.5938 9.2642 35.5085 9.02841C35.4261 8.78977 35.2827 8.60937 35.0781 8.48722C34.8764 8.36222 34.5952 8.29972 34.2344 8.29972C33.919 8.29972 33.6506 8.36648 33.429 8.5C33.2102 8.63352 33.0426 8.82102 32.9261 9.0625C32.8125 9.30114 32.7543 9.58239 32.7514 9.90625C32.7543 10.2074 32.8026 10.4929 32.8963 10.7628C32.9901 11.0298 33.1449 11.2472 33.3608 11.4148C33.5767 11.5795 33.8707 11.6619 34.2429 11.6619ZM42.9031 9.21591V13H41.0877V6.45455H42.8178V7.60938H42.8945C43.0394 7.22869 43.2823 6.92756 43.6232 6.70597C43.9641 6.48153 44.3775 6.36932 44.8633 6.36932C45.3178 6.36932 45.7141 6.46875 46.0522 6.66761C46.3903 6.86648 46.6531 7.15057 46.8406 7.51989C47.0281 7.88636 47.1218 8.32386 47.1218 8.83239V13H45.3065V9.15625C45.3093 8.75568 45.207 8.44318 44.9996 8.21875C44.7923 7.99148 44.5067 7.87784 44.1431 7.87784C43.8988 7.87784 43.6829 7.9304 43.4954 8.03551C43.3107 8.14062 43.1658 8.29403 43.0607 8.49574C42.9585 8.6946 42.9059 8.93466 42.9031 9.21591ZM50.419 13.1236C50.0014 13.1236 49.6293 13.0511 49.3026 12.9062C48.9759 12.7585 48.7173 12.5412 48.527 12.2543C48.3395 11.9645 48.2457 11.6037 48.2457 11.1719C48.2457 10.8082 48.3125 10.5028 48.446 10.2557C48.5795 10.0085 48.7614 9.80966 48.9915 9.65909C49.2216 9.50852 49.483 9.39489 49.7756 9.31818C50.071 9.24148 50.3807 9.1875 50.7045 9.15625C51.0852 9.11648 51.392 9.07955 51.625 9.04545C51.858 9.00852 52.027 8.95455 52.1321 8.88352C52.2372 8.8125 52.2898 8.70739 52.2898 8.56818V8.54261C52.2898 8.27273 52.2045 8.06392 52.0341 7.91619C51.8665 7.76847 51.6278 7.6946 51.3182 7.6946C50.9915 7.6946 50.7315 7.76705 50.5384 7.91193C50.3452 8.05398 50.2173 8.23295 50.1548 8.44886L48.4759 8.3125C48.5611 7.91477 48.7287 7.57102 48.9787 7.28125C49.2287 6.98864 49.5511 6.7642 49.946 6.60795C50.3438 6.44886 50.804 6.36932 51.3267 6.36932C51.6903 6.36932 52.0384 6.41193 52.3707 6.49716C52.706 6.58239 53.0028 6.71449 53.2614 6.89347C53.5227 7.07244 53.7287 7.30256 53.8793 7.58381C54.0298 7.86222 54.1051 8.19602 54.1051 8.58523V13H52.3835V12.0923H52.3324C52.2273 12.2969 52.0866 12.4773 51.9105 12.6335C51.7344 12.7869 51.5227 12.9077 51.2756 12.9957C51.0284 13.081 50.7429 13.1236 50.419 13.1236ZM50.9389 11.8707C51.206 11.8707 51.4418 11.8182 51.6463 11.7131C51.8509 11.6051 52.0114 11.4602 52.1278 11.2784C52.2443 11.0966 52.3026 10.8906 52.3026 10.6605V9.96591C52.2457 10.0028 52.1676 10.0369 52.0682 10.0682C51.9716 10.0966 51.8622 10.1236 51.7401 10.1491C51.6179 10.1719 51.4957 10.1932 51.3736 10.2131C51.2514 10.2301 51.1406 10.2457 51.0412 10.2599C50.8281 10.2912 50.642 10.3409 50.483 10.4091C50.3239 10.4773 50.2003 10.5696 50.1122 10.6861C50.0241 10.7997 49.9801 10.9418 49.9801 11.1122C49.9801 11.3594 50.0696 11.5483 50.2486 11.679C50.4304 11.8068 50.6605 11.8707 50.9389 11.8707ZM58.995 6.45455V7.81818H55.0533V6.45455H58.995ZM55.9482 4.88636H57.7635V10.9886C57.7635 11.1562 57.7891 11.2869 57.8402 11.3807C57.8913 11.4716 57.9624 11.5355 58.0533 11.5724C58.147 11.6094 58.255 11.6278 58.3771 11.6278C58.4624 11.6278 58.5476 11.6207 58.6328 11.6065C58.718 11.5895 58.7834 11.5767 58.8288 11.5682L59.1143 12.919C59.0234 12.9474 58.8956 12.9801 58.7308 13.017C58.5661 13.0568 58.3658 13.081 58.13 13.0895C57.6925 13.1065 57.3089 13.0483 56.9794 12.9148C56.6527 12.7812 56.3984 12.5739 56.2166 12.2926C56.0348 12.0114 55.9453 11.6562 55.9482 11.2273V4.88636ZM62.1335 9.21591V13H60.3182V4.27273H62.0824V7.60938H62.1591C62.3068 7.22301 62.5455 6.92045 62.875 6.7017C63.2045 6.48011 63.6179 6.36932 64.1151 6.36932C64.5696 6.36932 64.9659 6.46875 65.304 6.66761C65.6449 6.86364 65.9091 7.14631 66.0966 7.51562C66.2869 7.8821 66.3807 8.32102 66.3778 8.83239V13H64.5625V9.15625C64.5653 8.75284 64.4631 8.43892 64.2557 8.21449C64.0511 7.99006 63.7642 7.87784 63.3949 7.87784C63.1477 7.87784 62.929 7.9304 62.7386 8.03551C62.5511 8.14062 62.4034 8.29403 62.2955 8.49574C62.1903 8.6946 62.1364 8.93466 62.1335 9.21591ZM69.6729 13.1236C69.2553 13.1236 68.8832 13.0511 68.5565 12.9062C68.2298 12.7585 67.9712 12.5412 67.7809 12.2543C67.5934 11.9645 67.4996 11.6037 67.4996 11.1719C67.4996 10.8082 67.5664 10.5028 67.6999 10.2557C67.8335 10.0085 68.0153 9.80966 68.2454 9.65909C68.4755 9.50852 68.7369 9.39489 69.0295 9.31818C69.3249 9.24148 69.6346 9.1875 69.9585 9.15625C70.3391 9.11648 70.646 9.07955 70.8789 9.04545C71.1119 9.00852 71.2809 8.95455 71.386 8.88352C71.4911 8.8125 71.5437 8.70739 71.5437 8.56818V8.54261C71.5437 8.27273 71.4585 8.06392 71.288 7.91619C71.1204 7.76847 70.8817 7.6946 70.5721 7.6946C70.2454 7.6946 69.9854 7.76705 69.7923 7.91193C69.5991 8.05398 69.4712 8.23295 69.4087 8.44886L67.7298 8.3125C67.815 7.91477 67.9826 7.57102 68.2326 7.28125C68.4826 6.98864 68.805 6.7642 69.1999 6.60795C69.5977 6.44886 70.0579 6.36932 70.5806 6.36932C70.9442 6.36932 71.2923 6.41193 71.6246 6.49716C71.9599 6.58239 72.2567 6.71449 72.5153 6.89347C72.7766 7.07244 72.9826 7.30256 73.1332 7.58381C73.2837 7.86222 73.359 8.19602 73.359 8.58523V13H71.6374V12.0923H71.5863C71.4812 12.2969 71.3406 12.4773 71.1644 12.6335C70.9883 12.7869 70.7766 12.9077 70.5295 12.9957C70.2823 13.081 69.9968 13.1236 69.6729 13.1236ZM70.1928 11.8707C70.4599 11.8707 70.6957 11.8182 70.9002 11.7131C71.1048 11.6051 71.2653 11.4602 71.3817 11.2784C71.4982 11.0966 71.5565 10.8906 71.5565 10.6605V9.96591C71.4996 10.0028 71.4215 10.0369 71.3221 10.0682C71.2255 10.0966 71.1161 10.1236 70.994 10.1491C70.8718 10.1719 70.7496 10.1932 70.6275 10.2131C70.5053 10.2301 70.3945 10.2457 70.2951 10.2599C70.082 10.2912 69.896 10.3409 69.7369 10.4091C69.5778 10.4773 69.4542 10.5696 69.3661 10.6861C69.2781 10.7997 69.234 10.9418 69.234 11.1122C69.234 11.3594 69.3235 11.5483 69.5025 11.679C69.6843 11.8068 69.9144 11.8707 70.1928 11.8707ZM76.5827 9.21591V13H74.7674V6.45455H76.4975V7.60938H76.5742C76.7191 7.22869 76.962 6.92756 77.3029 6.70597C77.6438 6.48153 78.0572 6.36932 78.543 6.36932C78.9975 6.36932 79.3938 6.46875 79.7319 6.66761C80.07 6.86648 80.3327 7.15057 80.5202 7.51989C80.7077 7.88636 80.8015 8.32386 80.8015 8.83239V13H78.9862V9.15625C78.989 8.75568 78.8867 8.44318 78.6793 8.21875C78.4719 7.99148 78.1864 7.87784 77.8228 7.87784C77.5785 7.87784 77.3626 7.9304 77.1751 8.03551C76.9904 8.14062 76.8455 8.29403 76.7404 8.49574C76.6381 8.6946 76.5856 8.93466 76.5827 9.21591ZM85.7521 6.45455V7.81818H81.7124V6.45455H85.7521ZM82.6371 13V5.98153C82.6371 5.5071 82.7294 5.11364 82.9141 4.80114C83.1016 4.48864 83.3572 4.25426 83.6811 4.09801C84.005 3.94176 84.3729 3.86364 84.7848 3.86364C85.0632 3.86364 85.3175 3.88494 85.5476 3.92756C85.7805 3.97017 85.9538 4.00852 86.0675 4.04261L85.7436 5.40625C85.6726 5.38352 85.5845 5.36222 85.4794 5.34233C85.3771 5.32244 85.272 5.3125 85.1641 5.3125C84.897 5.3125 84.7109 5.375 84.6058 5.5C84.5007 5.62216 84.4482 5.79403 84.4482 6.01562V13H82.6371Z" fill="#8C98C6"/>
</g>
<defs>
<clipPath id="clip0_0_886">
<rect width="86" height="17" fill="white"/>
</clipPath>
</defs>
</svg>
