<svg width="84" height="20" viewBox="0 0 84 20" fill="none" xmlns="http://www.w3.org/2000/svg">
<g clip-path="url(#clip0_0_921)">
<path fill-rule="evenodd" clip-rule="evenodd" d="M10 0C4.4775 0 0 4.4775 0 10C0 15.5225 4.4775 20 10 20C15.5225 20 20 15.5225 20 10C20 4.4775 15.5225 0 10 0ZM13.7008 14.0767C11.9492 14.1967 8.0475 14.1967 6.29833 14.0767C4.40167 13.9467 4.18083 13.0183 4.16667 10C4.18083 6.97583 4.40417 6.05333 6.29833 5.92333C8.0475 5.80333 11.95 5.80333 13.7008 5.92333C15.5983 6.05333 15.8183 6.98167 15.8333 10C15.8183 13.0242 15.5958 13.9467 13.7008 14.0767ZM12.4308 9.99667L8.33333 8.04833V11.9517L12.4308 9.99667Z" fill="#C4032B"/>
<path d="M36.0582 6.27273V15H34.4645L30.6676 9.5071H30.6037V15H28.7585V6.27273H30.3778L34.1449 11.7614H34.2216V6.27273H36.0582ZM39.4151 15.1236C38.9975 15.1236 38.6254 15.0511 38.2987 14.9062C37.9719 14.7585 37.7134 14.5412 37.5231 14.2543C37.3356 13.9645 37.2418 13.6037 37.2418 13.1719C37.2418 12.8082 37.3086 12.5028 37.4421 12.2557C37.5756 12.0085 37.7575 11.8097 37.9876 11.6591C38.2177 11.5085 38.479 11.3949 38.7717 11.3182C39.0671 11.2415 39.3768 11.1875 39.7006 11.1562C40.0813 11.1165 40.3881 11.0795 40.6211 11.0455C40.854 11.0085 41.0231 10.9545 41.1282 10.8835C41.2333 10.8125 41.2859 10.7074 41.2859 10.5682V10.5426C41.2859 10.2727 41.2006 10.0639 41.0302 9.91619C40.8626 9.76847 40.6239 9.6946 40.3143 9.6946C39.9876 9.6946 39.7276 9.76705 39.5344 9.91193C39.3413 10.054 39.2134 10.233 39.1509 10.4489L37.4719 10.3125C37.5572 9.91477 37.7248 9.57102 37.9748 9.28125C38.2248 8.98864 38.5472 8.7642 38.9421 8.60795C39.3398 8.44886 39.8001 8.36932 40.3228 8.36932C40.6864 8.36932 41.0344 8.41193 41.3668 8.49716C41.7021 8.58239 41.9989 8.71449 42.2575 8.89347C42.5188 9.07244 42.7248 9.30256 42.8754 9.58381C43.0259 9.86222 43.1012 10.196 43.1012 10.5852V15H41.3796V14.0923H41.3285C41.2234 14.2969 41.0827 14.4773 40.9066 14.6335C40.7305 14.7869 40.5188 14.9077 40.2717 14.9957C40.0245 15.081 39.739 15.1236 39.4151 15.1236ZM39.935 13.8707C40.2021 13.8707 40.4379 13.8182 40.6424 13.7131C40.8469 13.6051 41.0075 13.4602 41.1239 13.2784C41.2404 13.0966 41.2987 12.8906 41.2987 12.6605V11.9659C41.2418 12.0028 41.1637 12.0369 41.0643 12.0682C40.9677 12.0966 40.8583 12.1236 40.7362 12.1491C40.614 12.1719 40.4918 12.1932 40.3697 12.2131C40.2475 12.2301 40.1367 12.2457 40.0373 12.2599C39.8242 12.2912 39.6381 12.3409 39.479 12.4091C39.32 12.4773 39.1964 12.5696 39.1083 12.6861C39.0202 12.7997 38.9762 12.9418 38.9762 13.1122C38.9762 13.3594 39.0657 13.5483 39.2447 13.679C39.4265 13.8068 39.6566 13.8707 39.935 13.8707ZM47.9911 8.45455V9.81818H44.0494V8.45455H47.9911ZM44.9442 6.88636H46.7596V12.9886C46.7596 13.1562 46.7852 13.2869 46.8363 13.3807C46.8874 13.4716 46.9585 13.5355 47.0494 13.5724C47.1431 13.6094 47.2511 13.6278 47.3732 13.6278C47.4585 13.6278 47.5437 13.6207 47.6289 13.6065C47.7141 13.5895 47.7795 13.5767 47.8249 13.5682L48.1104 14.919C48.0195 14.9474 47.8917 14.9801 47.7269 15.017C47.5621 15.0568 47.3619 15.081 47.1261 15.0895C46.6886 15.1065 46.305 15.0483 45.9755 14.9148C45.6488 14.7812 45.3945 14.5739 45.2127 14.2926C45.0309 14.0114 44.9414 13.6562 44.9442 13.2273V6.88636ZM51.1296 11.2159V15H49.3143V6.27273H51.0785V9.60938H51.1552C51.3029 9.22301 51.5415 8.92045 51.8711 8.7017C52.2006 8.48011 52.614 8.36932 53.1112 8.36932C53.5657 8.36932 53.962 8.46875 54.3001 8.66761C54.641 8.86364 54.9052 9.14631 55.0927 9.51562C55.283 9.8821 55.3768 10.321 55.3739 10.8324V15H53.5586V11.1562C53.5614 10.7528 53.4592 10.4389 53.2518 10.2145C53.0472 9.99006 52.7603 9.87784 52.391 9.87784C52.1438 9.87784 51.9251 9.9304 51.7347 10.0355C51.5472 10.1406 51.3995 10.294 51.2915 10.4957C51.1864 10.6946 51.1325 10.9347 51.1296 11.2159ZM58.669 15.1236C58.2514 15.1236 57.8793 15.0511 57.5526 14.9062C57.2259 14.7585 56.9673 14.5412 56.777 14.2543C56.5895 13.9645 56.4957 13.6037 56.4957 13.1719C56.4957 12.8082 56.5625 12.5028 56.696 12.2557C56.8295 12.0085 57.0114 11.8097 57.2415 11.6591C57.4716 11.5085 57.733 11.3949 58.0256 11.3182C58.321 11.2415 58.6307 11.1875 58.9545 11.1562C59.3352 11.1165 59.642 11.0795 59.875 11.0455C60.108 11.0085 60.277 10.9545 60.3821 10.8835C60.4872 10.8125 60.5398 10.7074 60.5398 10.5682V10.5426C60.5398 10.2727 60.4545 10.0639 60.2841 9.91619C60.1165 9.76847 59.8778 9.6946 59.5682 9.6946C59.2415 9.6946 58.9815 9.76705 58.7884 9.91193C58.5952 10.054 58.4673 10.233 58.4048 10.4489L56.7259 10.3125C56.8111 9.91477 56.9787 9.57102 57.2287 9.28125C57.4787 8.98864 57.8011 8.7642 58.196 8.60795C58.5938 8.44886 59.054 8.36932 59.5767 8.36932C59.9403 8.36932 60.2884 8.41193 60.6207 8.49716C60.956 8.58239 61.2528 8.71449 61.5114 8.89347C61.7727 9.07244 61.9787 9.30256 62.1293 9.58381C62.2798 9.86222 62.3551 10.196 62.3551 10.5852V15H60.6335V14.0923H60.5824C60.4773 14.2969 60.3366 14.4773 60.1605 14.6335C59.9844 14.7869 59.7727 14.9077 59.5256 14.9957C59.2784 15.081 58.9929 15.1236 58.669 15.1236ZM59.1889 13.8707C59.456 13.8707 59.6918 13.8182 59.8963 13.7131C60.1009 13.6051 60.2614 13.4602 60.3778 13.2784C60.4943 13.0966 60.5526 12.8906 60.5526 12.6605V11.9659C60.4957 12.0028 60.4176 12.0369 60.3182 12.0682C60.2216 12.0966 60.1122 12.1236 59.9901 12.1491C59.8679 12.1719 59.7457 12.1932 59.6236 12.2131C59.5014 12.2301 59.3906 12.2457 59.2912 12.2599C59.0781 12.2912 58.892 12.3409 58.733 12.4091C58.5739 12.4773 58.4503 12.5696 58.3622 12.6861C58.2741 12.7997 58.2301 12.9418 58.2301 13.1122C58.2301 13.3594 58.3196 13.5483 58.4986 13.679C58.6804 13.8068 58.9105 13.8707 59.1889 13.8707ZM65.5788 11.2159V15H63.7635V8.45455H65.4936V9.60938H65.5703C65.7152 9.22869 65.9581 8.92756 66.299 8.70597C66.6399 8.48153 67.0533 8.36932 67.5391 8.36932C67.9936 8.36932 68.3899 8.46875 68.728 8.66761C69.0661 8.86648 69.3288 9.15057 69.5163 9.51989C69.7038 9.88636 69.7976 10.3239 69.7976 10.8324V15H67.9822V11.1562C67.9851 10.7557 67.8828 10.4432 67.6754 10.2188C67.468 9.99148 67.1825 9.87784 66.8189 9.87784C66.5746 9.87784 66.3587 9.9304 66.1712 10.0355C65.9865 10.1406 65.8416 10.294 65.7365 10.4957C65.6342 10.6946 65.5817 10.9347 65.5788 11.2159ZM74.0398 15V6.27273H79.8182V7.79403H75.8849V9.87358H79.4347V11.3949H75.8849V15H74.0398ZM81.6761 15.1108C81.3949 15.1108 81.1534 15.0114 80.9517 14.8125C80.7528 14.6108 80.6534 14.3693 80.6534 14.0881C80.6534 13.8097 80.7528 13.571 80.9517 13.3722C81.1534 13.1733 81.3949 13.0739 81.6761 13.0739C81.9489 13.0739 82.1875 13.1733 82.392 13.3722C82.5966 13.571 82.6989 13.8097 82.6989 14.0881C82.6989 14.2756 82.6506 14.4474 82.554 14.6037C82.4602 14.7571 82.3366 14.8807 82.1832 14.9744C82.0298 15.0653 81.8608 15.1108 81.6761 15.1108Z" fill="#8C98C6"/>
</g>
<defs>
<clipPath id="clip0_0_921">
<rect width="84" height="20" fill="white"/>
</clipPath>
</defs>
</svg>
